<svg width="193" height="75" viewBox="0 0 193 75" fill="none" xmlns="http://www.w3.org/2000/svg">
<path d="M86.4 17.5C87.6667 17.5 88.85 17.6917 89.95 18.075C91.05 18.4417 92 18.9833 92.8 19.7C93.6167 20.4 94.25 21.2583 94.7 22.275C95.1667 23.2917 95.4 24.4333 95.4 25.7C95.4 26.95 95.1667 28.0833 94.7 29.1C94.25 30.1167 93.6167 30.9917 92.8 31.725C92 32.4417 91.05 33 89.95 33.4C88.85 33.8 87.6667 34 86.4 34H80.65V17.5H86.4ZM84.95 21.4V30.125H86.375C87.025 30.125 87.6333 30.025 88.2 29.825C88.7667 29.625 89.25 29.3417 89.65 28.975C90.0667 28.5917 90.3917 28.125 90.625 27.575C90.875 27.025 91 26.4 91 25.7C91 24.9667 90.875 24.3333 90.625 23.8C90.3917 23.25 90.0667 22.8 89.65 22.45C89.25 22.1 88.7667 21.8417 88.2 21.675C87.6333 21.4917 87.025 21.4 86.375 21.4H84.95ZM103.162 34H98.8619V17.5H103.162V34ZM115.58 17.2C117.113 17.2 118.48 17.5167 119.68 18.15C120.88 18.7833 121.88 19.6917 122.68 20.875L119.68 23.425C119.163 22.7083 118.571 22.15 117.905 21.75C117.255 21.35 116.455 21.15 115.505 21.15C114.805 21.15 114.171 21.2667 113.605 21.5C113.055 21.7167 112.588 22.025 112.205 22.425C111.821 22.825 111.521 23.3083 111.305 23.875C111.105 24.4417 111.005 25.0667 111.005 25.75C111.005 26.45 111.113 27.0917 111.33 27.675C111.546 28.2583 111.855 28.7583 112.255 29.175C112.671 29.575 113.171 29.8917 113.755 30.125C114.355 30.3583 115.021 30.475 115.755 30.475C116.555 30.475 117.255 30.35 117.855 30.1C118.471 29.8333 118.98 29.4667 119.38 29V28.225H115.53V24.525H123.68V29.725C123.313 30.375 122.855 30.9833 122.305 31.55C121.755 32.1 121.138 32.5833 120.455 33C119.771 33.4 119.013 33.7167 118.18 33.95C117.363 34.1833 116.496 34.3 115.58 34.3C114.313 34.3 113.13 34.0833 112.03 33.65C110.946 33.2167 109.996 32.6167 109.18 31.85C108.38 31.0833 107.746 30.1833 107.28 29.15C106.83 28.1 106.605 26.9667 106.605 25.75C106.605 24.5333 106.83 23.4083 107.28 22.375C107.746 21.325 108.38 20.4167 109.18 19.65C109.996 18.8833 110.946 18.2833 112.03 17.85C113.13 17.4167 114.313 17.2 115.58 17.2ZM131.431 34H127.131V17.5H131.431V34ZM152.524 34H148.224V27.1L144.799 31.075H143.424L140.024 27.1V34H135.724V17.2H137.099L144.124 25.775L151.149 17.2H152.524V34ZM171.592 34H166.967L166.367 32.625H160.442L159.842 34H155.217L162.717 17.2H164.092L171.592 34ZM161.967 29.175H164.842L163.417 25.375L161.967 29.175ZM182.846 25.625L188.171 34H183.321L180.421 29.4L177.546 34H172.696L178.046 25.65L172.996 17.5H177.846L180.421 21.9L182.996 17.5H187.846L182.846 25.625Z" fill="#35F5FF"/>
<path d="M86.075 42.2C87.525 42.2 88.7083 42.5167 89.625 43.15C90.5417 43.7833 91.2417 44.575 91.725 45.525L88.85 47.725C88.4667 47.175 88.075 46.75 87.675 46.45C87.275 46.1333 86.7583 45.975 86.125 45.975C85.6917 45.975 85.3333 46.0583 85.05 46.225C84.7833 46.375 84.65 46.6417 84.65 47.025C84.65 47.3417 84.7583 47.5917 84.975 47.775C85.1917 47.9583 85.5583 48.1583 86.075 48.375L87.975 49.175C89.3583 49.7583 90.4083 50.4333 91.125 51.2C91.8417 51.95 92.2 52.9333 92.2 54.15C92.2 54.9667 92.0417 55.6917 91.725 56.325C91.425 56.9583 91 57.5 90.45 57.95C89.9 58.3833 89.2583 58.7167 88.525 58.95C87.7917 59.1833 87 59.3 86.15 59.3C84.6333 59.3 83.3 58.9667 82.15 58.3C81.0167 57.6167 80.1583 56.7167 79.575 55.6L82.475 53.4C82.675 53.6667 82.8917 53.9333 83.125 54.2C83.3583 54.45 83.6167 54.675 83.9 54.875C84.2 55.075 84.5333 55.2333 84.9 55.35C85.2667 55.4667 85.6833 55.525 86.15 55.525C87.2833 55.525 87.85 55.125 87.85 54.325C87.85 53.9417 87.7167 53.6583 87.45 53.475C87.1833 53.275 86.7583 53.05 86.175 52.8L84.475 52.05C83.1583 51.4667 82.1333 50.7833 81.4 50C80.6667 49.2167 80.3 48.2417 80.3 47.075C80.3 46.3417 80.4417 45.675 80.725 45.075C81.0083 44.475 81.4083 43.9667 81.925 43.55C82.4417 43.1167 83.05 42.7833 83.75 42.55C84.4667 42.3167 85.2417 42.2 86.075 42.2ZM107.089 46.375H99.9393V48.65H105.039V52.25H99.9393V55.125H107.389V59H95.6393V42.5H107.089V46.375ZM121.393 50.775V42.5H125.693V59.3H124.318L115.368 50.625V59H111.068V42.2H112.443L121.393 50.775ZM135.413 42.2C136.863 42.2 138.046 42.5167 138.963 43.15C139.88 43.7833 140.58 44.575 141.063 45.525L138.188 47.725C137.805 47.175 137.413 46.75 137.013 46.45C136.613 46.1333 136.096 45.975 135.463 45.975C135.03 45.975 134.671 46.0583 134.388 46.225C134.121 46.375 133.988 46.6417 133.988 47.025C133.988 47.3417 134.096 47.5917 134.313 47.775C134.53 47.9583 134.896 48.1583 135.413 48.375L137.313 49.175C138.696 49.7583 139.746 50.4333 140.463 51.2C141.18 51.95 141.538 52.9333 141.538 54.15C141.538 54.9667 141.38 55.6917 141.063 56.325C140.763 56.9583 140.338 57.5 139.788 57.95C139.238 58.3833 138.596 58.7167 137.863 58.95C137.13 59.1833 136.338 59.3 135.488 59.3C133.971 59.3 132.638 58.9667 131.488 58.3C130.355 57.6167 129.496 56.7167 128.913 55.6L131.813 53.4C132.013 53.6667 132.23 53.9333 132.463 54.2C132.696 54.45 132.955 54.675 133.238 54.875C133.538 55.075 133.871 55.2333 134.238 55.35C134.605 55.4667 135.021 55.525 135.488 55.525C136.621 55.525 137.188 55.125 137.188 54.325C137.188 53.9417 137.055 53.6583 136.788 53.475C136.521 53.275 136.096 53.05 135.513 52.8L133.813 52.05C132.496 51.4667 131.471 50.7833 130.738 50C130.005 49.2167 129.638 48.2417 129.638 47.075C129.638 46.3417 129.78 45.675 130.063 45.075C130.346 44.475 130.746 43.9667 131.263 43.55C131.78 43.1167 132.388 42.7833 133.088 42.55C133.805 42.3167 134.58 42.2 135.413 42.2ZM153.002 42.2C154.235 42.2 155.394 42.4167 156.477 42.85C157.56 43.2833 158.502 43.8833 159.302 44.65C160.119 45.4167 160.76 46.325 161.227 47.375C161.694 48.4083 161.927 49.5333 161.927 50.75C161.927 51.9667 161.694 53.1 161.227 54.15C160.76 55.1833 160.119 56.0833 159.302 56.85C158.502 57.6167 157.56 58.2167 156.477 58.65C155.394 59.0833 154.235 59.3 153.002 59.3C151.769 59.3 150.61 59.0833 149.527 58.65C148.46 58.2167 147.527 57.6167 146.727 56.85C145.927 56.0833 145.294 55.1833 144.827 54.15C144.36 53.1 144.127 51.9667 144.127 50.75C144.127 49.5333 144.36 48.4083 144.827 47.375C145.294 46.325 145.927 45.4167 146.727 44.65C147.527 43.8833 148.46 43.2833 149.527 42.85C150.61 42.4167 151.769 42.2 153.002 42.2ZM153.027 46.15C152.36 46.15 151.752 46.2667 151.202 46.5C150.652 46.7167 150.177 47.025 149.777 47.425C149.377 47.825 149.069 48.3083 148.852 48.875C148.635 49.4417 148.527 50.0667 148.527 50.75C148.527 51.45 148.635 52.0833 148.852 52.65C149.069 53.2167 149.377 53.7 149.777 54.1C150.177 54.5 150.652 54.8083 151.202 55.025C151.752 55.2417 152.36 55.35 153.027 55.35C153.66 55.35 154.252 55.2417 154.802 55.025C155.352 54.8083 155.827 54.5 156.227 54.1C156.627 53.7 156.944 53.2167 157.177 52.65C157.41 52.0833 157.527 51.45 157.527 50.75C157.527 50.0667 157.41 49.4417 157.177 48.875C156.944 48.3083 156.627 47.825 156.227 47.425C155.827 47.025 155.352 46.7167 154.802 46.5C154.252 46.2667 153.66 46.15 153.027 46.15ZM171.861 42.5C172.761 42.5 173.603 42.6333 174.386 42.9C175.17 43.1667 175.845 43.5417 176.411 44.025C176.978 44.5083 177.42 45.1083 177.736 45.825C178.07 46.525 178.236 47.3083 178.236 48.175C178.236 49.225 178.003 50.15 177.536 50.95C177.07 51.75 176.436 52.3917 175.636 52.875L179.986 59H175.186L171.461 53.875H169.686V59H165.386V42.5H171.861ZM169.686 46.25V50.125H171.886C172.486 50.125 172.961 49.95 173.311 49.6C173.678 49.2333 173.861 48.7583 173.861 48.175C173.861 47.5917 173.678 47.125 173.311 46.775C172.961 46.425 172.486 46.25 171.886 46.25H169.686Z" fill="white"/>
<g clip-path="url(#clip0_218_541)">
<path d="M57.9714 13.5704C51.8294 7.42851 43.3543 3.63965 34.0019 3.63965H19.1655H0.101562L17.0517 37.5399H36.1156L27.6406 20.5898H34.0019C43.3543 20.5898 50.952 28.1874 50.952 37.5399C50.952 46.8924 43.3543 54.49 34.0019 54.49H17.0517V37.5399H0.101562V71.4402H34.0019C52.7268 71.4402 67.9021 56.2648 67.9021 37.5399C67.9021 28.1874 64.1133 19.7124 57.9714 13.5704Z" fill="white"/>
</g>
<defs>
<clipPath id="clip0_218_541">
<rect width="68" height="68" fill="white" transform="translate(0 3.5)"/>
</clipPath>
</defs>
</svg>
